<?xml version="1.0" standalone="no"?>
<!DOCTYPE svg PUBLIC "-//W3C//DTD SVG 20010904//EN"
 "http://www.w3.org/TR/2001/REC-SVG-20010904/DTD/svg10.dtd">
<svg version="1.0" xmlns="http://www.w3.org/2000/svg"
 width="512.000000pt" height="512.000000pt" viewBox="0 0 512.000000 512.000000"
 preserveAspectRatio="xMidYMid meet">
<metadata>
Created by potrace 1.11, written by Peter Selinger 2001-2013
</metadata>
<g transform="translate(0.000000,512.000000) scale(0.100000,-0.100000)"
fill="#000000" stroke="none">
<path d="M445 4675 l-25 -24 0 -2086 0 -2087 29 -29 29 -29 2082 0 2082 0 29
29 29 29 0 2087 0 2086 -25 24 -24 25 -2091 0 -2091 0 -24 -25z m1025 -575 l0
-430 -440 0 -440 0 0 430 0 430 440 0 440 0 0 -430z m1030 238 c1 -202 3 -213
47 -236 35 -19 63 -14 94 17 l29 29 0 191 0 191 430 0 430 0 0 -430 0 -430
-129 0 c-115 0 -131 -2 -155 -21 -32 -26 -36 -84 -7 -120 18 -23 26 -24 155
-27 l136 -4 -2 -426 -3 -427 -143 -5 c-136 -5 -145 -6 -163 -29 -26 -32 -24
-74 5 -108 l24 -28 149 -3 c119 -3 151 -7 166 -20 23 -21 81 -21 105 1 17 15
57 17 440 17 l422 0 0 -425 0 -425 -45 0 c-95 0 -147 -47 -128 -115 11 -38 62
-65 126 -65 l47 0 0 -425 0 -425 -414 0 -414 0 -7 30 c-8 36 -45 63 -86 63
-34 0 -76 -35 -81 -67 -3 -21 -3 -21 -430 -24 -419 -2 -428 -2 -428 17 0 11
-10 32 -23 46 -33 39 -91 39 -123 1 -13 -15 -24 -36 -24 -47 0 -19 -11 -19
-430 -19 l-430 0 0 23 c-1 39 -45 77 -90 77 -27 0 -80 -52 -80 -79 0 -21 -1
-21 -440 -21 l-440 0 0 424 0 424 96 4 c91 4 98 6 120 32 31 35 31 77 0 112
-22 26 -29 28 -120 32 l-96 4 0 429 0 429 77 0 c93 0 123 20 123 79 -1 66 -38
91 -134 91 l-66 0 0 425 0 425 440 0 440 0 0 -325 0 -325 -233 0 -234 0 -24
-26 -24 -26 -3 -921 c-1 -507 0 -937 3 -956 4 -18 17 -44 30 -57 l24 -24 373
0 c407 0 403 -1 427 57 8 21 11 274 9 965 l-3 936 -24 26 c-21 23 -33 26 -88
26 l-63 0 0 325 0 325 146 0 146 0 29 29 c16 16 29 39 29 51 0 29 -26 76 -45
84 -9 3 -82 6 -161 6 l-144 0 0 430 0 430 430 0 430 0 0 -192z m2030 -238 l0
-430 -415 0 -415 0 0 430 0 430 415 0 415 0 0 -430z m0 -1030 l0 -430 -415 0
-415 0 0 430 0 430 415 0 415 0 0 -430z m-2890 -1220 l0 -830 -255 0 -255 0 0
830 0 830 255 0 255 0 0 -830z"/>
<path d="M2224 3923 c-12 -2 -32 -15 -45 -29 l-24 -26 -3 -1471 c-2 -1093 1
-1479 9 -1500 24 -58 20 -57 427 -57 l373 0 24 24 c13 13 26 39 30 57 3 19 4
690 3 1491 l-3 1458 -28 27 -27 28 -358 1 c-196 1 -367 0 -378 -3z"/>
<path d="M3379 2241 l-29 -30 2 -661 3 -662 28 -24 28 -24 365 0 c383 0 412 3
428 45 3 9 6 313 6 676 l0 660 -25 24 -24 25 -376 0 -377 0 -29 -29z m661
-681 l0 -540 -255 0 -255 0 0 540 0 540 255 0 255 0 0 -540z"/>
</g>
</svg>
